<svg xmlns="http://www.w3.org/2000/svg" viewBox="95 85 480 510" fill="none" role="img" aria-label="Tuntut">
  <title>Tuntut</title>
  <path fill="#10243A" d="M250 310H160C125 310 105 290 105 255V175C105 125 135 95 185 95H505C535 95 555 115 555 145C555 178 532 200 500 200H260C238 200 225 213 225 235V310Z"/>
  <path fill="#1d5080" stroke="#F7F4ED" stroke-width="12" stroke-linejoin="round" d="M235 225H520C550 225 565 245 565 275C565 308 543 330 510 330H390V540C390 567 372 585 345 585H315C288 585 270 567 270 540V330H235C205 330 185 308 185 278C185 247 205 225 235 225Z"/>
  <path fill="#C9972C" d="M190 288C220 290 251 301 270 329C251 317 235 322 224 341C208 325 195 307 190 288Z"/>
  <path fill="#F7F4ED" d="M224 341C235 322 251 317 270 329C255 325 244 331 238 350Z"/>
</svg>
